<svg width="104" height="36" viewBox="0 0 104 36" fill="none" xmlns="http://www.w3.org/2000/svg">
<path d="M19.5 23.3333C13.5287 23.3333 8.66675 28.1952 8.66675 34.1665C8.66675 40.1378 13.5287 45 19.5 45C25.4713 45 30.3333 40.138 30.3333 34.1667C30.3333 28.1955 25.4713 23.3333 19.5 23.3333ZM19.5 40.6667C15.9163 40.6667 13 37.7505 13 34.1667C13 30.583 15.9163 27.6667 19.5 27.6667C23.0838 27.6667 26 30.583 26 34.1667C26 37.7502 23.0838 40.6667 19.5 40.6667Z" fill="#FCCF00"/>
<path d="M84.5 23.3333C78.5287 23.3333 73.6667 28.1952 73.6667 34.1665C73.6667 40.1378 78.5287 45 84.5 45C90.4713 45 95.3333 40.138 95.3333 34.1667C95.3333 28.1955 90.4713 23.3333 84.5 23.3333ZM84.5 40.6667C80.9163 40.6667 78 37.7505 78 34.1667C78 30.583 80.9163 27.6667 84.5 27.6667C88.0837 27.6667 91 30.583 91 34.1667C91 37.7502 88.0837 40.6667 84.5 40.6667Z" fill="#FCCF00"/>
<path d="M91 19.3333H87.334C85.995 19.3333 84.682 18.874 83.6333 18.0333L66.56 4.37453C64.6447 2.845 62.2397 2 59.7913 2H28.47C24.8387 2 21.4717 3.80273 19.4567 6.823L15.769 12.361C14.664 14.012 12.818 15 10.8333 15C4.862 15 0 19.862 0 25.8333V34.5C0 40.4713 4.862 45.3333 10.8333 45.3333C12.0293 45.3333 13 44.3625 13 43.1665C13 41.9705 12.0293 41 10.8333 41C7.24953 41 4.33327 38.0837 4.33327 34.5V25.8333C4.33327 22.2495 7.24953 19.3333 10.8333 19.3333C14.274 19.3333 17.4633 17.626 19.3743 14.7615L23.062 9.2278C24.271 7.41653 26.2947 6.33306 28.47 6.33306H59.7913C61.2645 6.33306 62.7033 6.84006 63.856 7.7588L80.9293 21.4131C82.7363 22.8648 85.0155 23.6663 87.3383 23.6663H91C97.357 23.6663 99.6667 30.1446 99.6667 34.4996C99.6667 38.7679 96.3995 40.9996 93.1667 40.9996C91.9707 40.9996 91 41.9703 91 43.1663C91 44.3623 91.9707 45.3331 93.1667 45.3331C99.3417 45.3333 104 40.675 104 34.5C104 27.1463 99.4457 19.3333 91 19.3333Z" fill="#FCCF00"/>
<path d="M75.8333 32H28.1667C26.9707 32 26 32.9707 26 34.1667C26 35.3627 26.9707 36.3335 28.1667 36.3335H75.8335C77.0295 36.3335 78.0002 35.3627 78.0002 34.1667C78.0002 32.9707 77.0293 32 75.8333 32Z" fill="#FCCF00"/>
<path d="M71.5 9.33324H52V2.83324C52 1.63724 51.0293 0.666504 49.8333 0.666504C48.6373 0.666504 47.6665 1.63724 47.6665 2.83324V11.5C47.6665 12.696 48.6373 13.6667 49.8333 13.6667H71.5C72.696 13.6667 73.6667 12.696 73.6667 11.5C73.6667 10.304 72.696 9.33324 71.5 9.33324Z" fill="#FCCF00"/>
<path d="M41.1667 9.33331H27.339L30.108 3.80405C30.641 2.73378 30.2077 1.43378 29.1373 0.896315C28.0625 0.363315 26.767 0.792317 26.2295 1.86705L21.8963 10.5338C21.5583 11.201 21.5973 12.0028 21.9915 12.6398C22.3858 13.2768 23.0835 13.6668 23.8333 13.6668H41.1665C42.3625 13.6668 43.3333 12.6961 43.3333 11.5001C43.3333 10.3041 42.3627 9.33331 41.1667 9.33331Z" fill="#FCCF00"/>
<path d="M58.5 18H54.1667C52.9707 18 52 18.9707 52 20.1667C52 21.3627 52.9707 22.3335 54.1667 22.3335H58.5C59.696 22.3335 60.6667 21.3627 60.6667 20.1667C60.6667 18.9707 59.696 18 58.5 18Z" fill="#FCCF00"/>
</svg>
