<svg width="104" height="45" viewBox="0 0 104 45" fill="none" xmlns="http://www.w3.org/2000/svg">
<path d="M19.5 22.6667C13.5287 22.6667 8.66675 27.5287 8.66675 33.5C8.66675 39.4713 13.5287 44.3335 19.5 44.3335C25.4713 44.3335 30.3333 39.4715 30.3333 33.5002C30.3333 27.5289 25.4713 22.6667 19.5 22.6667ZM19.5 40.0002C15.9163 40.0002 13 37.0839 13 33.5002C13 29.9165 15.9163 27.0002 19.5 27.0002C23.0838 27.0002 26 29.9165 26 33.5002C26 37.0837 23.0838 40.0002 19.5 40.0002Z" fill="#C4C4C4"/>
<path d="M84.5 22.6667C78.5287 22.6667 73.6667 27.5287 73.6667 33.5C73.6667 39.4713 78.5287 44.3335 84.5 44.3335C90.4713 44.3335 95.3333 39.4715 95.3333 33.5002C95.3333 27.5289 90.4713 22.6667 84.5 22.6667ZM84.5 40.0002C80.9163 40.0002 78 37.0839 78 33.5002C78 29.9165 80.9163 27.0002 84.5 27.0002C88.0837 27.0002 91 29.9165 91 33.5002C91 37.0837 88.0837 40.0002 84.5 40.0002Z" fill="#C4C4C4"/>
<path d="M91 18.6668H87.334C85.995 18.6668 84.682 18.2075 83.6333 17.3668L66.56 3.70803C64.6447 2.1785 62.2397 1.3335 59.7913 1.3335H28.47C24.8387 1.3335 21.4717 3.13623 19.4567 6.1565L15.769 11.6945C14.664 13.3455 12.818 14.3335 10.8333 14.3335C4.862 14.3335 0 19.1955 0 25.1668V33.8335C0 39.8048 4.862 44.6668 10.8333 44.6668C12.0293 44.6668 13 43.696 13 42.5C13 41.304 12.0293 40.3335 10.8333 40.3335C7.24953 40.3335 4.33327 37.4172 4.33327 33.8335V25.1668C4.33327 21.583 7.24953 18.6668 10.8333 18.6668C14.274 18.6668 17.4633 16.9595 19.3743 14.095L23.062 8.56129C24.271 6.75003 26.2947 5.66656 28.47 5.66656H59.7913C61.2645 5.66656 62.7033 6.17356 63.856 7.09229L80.9293 20.7466C82.7363 22.1983 85.0155 22.9998 87.3383 22.9998H91C97.357 22.9998 99.6667 29.4781 99.6667 33.8331C99.6667 38.1014 96.3995 40.3331 93.1667 40.3331C91.9707 40.3331 91 41.3038 91 42.4998C91 43.6958 91.9707 44.6666 93.1667 44.6666C99.3417 44.6668 104 40.0085 104 33.8335C104 26.4798 99.4457 18.6668 91 18.6668Z" fill="#C4C4C4"/>
<path d="M75.8333 31.3335H28.1667C26.9707 31.3335 26 32.3042 26 33.5002C26 34.6962 26.9707 35.667 28.1667 35.667H75.8335C77.0295 35.667 78.0002 34.6962 78.0002 33.5002C78.0002 32.3042 77.0293 31.3335 75.8333 31.3335Z" fill="#C4C4C4"/>
<path d="M71.5 8.66673H52V2.16673C52 0.970733 51.0292 0 49.8332 0C48.6372 0 47.6665 0.970733 47.6665 2.16673V10.8335C47.6665 12.0295 48.6372 13.0002 49.8332 13.0002H71.5C72.696 13.0002 73.6667 12.0295 73.6667 10.8335C73.6667 9.63747 72.696 8.66673 71.5 8.66673Z" fill="#C4C4C4"/>
<path d="M41.1667 8.66681H27.339L30.108 3.13755C30.641 2.06728 30.2077 0.76728 29.1373 0.229811C28.0625 -0.303189 26.767 0.125813 26.2295 1.20055L21.8963 9.86728C21.5583 10.5345 21.5973 11.3363 21.9915 11.9733C22.3858 12.6103 23.0835 13.0003 23.8333 13.0003H41.1665C42.3625 13.0003 43.3333 12.0295 43.3333 10.8335C43.3333 9.63755 42.3627 8.66681 41.1667 8.66681Z" fill="#C4C4C4"/>
<path d="M58.5 17.3335H54.1667C52.9707 17.3335 52 18.3042 52 19.5002C52 20.6962 52.9707 21.667 54.1667 21.667H58.5C59.696 21.667 60.6667 20.6962 60.6667 19.5002C60.6667 18.3042 59.696 17.3335 58.5 17.3335Z" fill="#C4C4C4"/>
</svg>
