<svg width="71" height="71" viewBox="0 0 71 71" fill="none" xmlns="http://www.w3.org/2000/svg">
<path d="M54.2207 37.5801V6.24023C54.2207 2.79119 51.2953 0 47.8418 0H18.7204C18.1931 0 17.6506 0.208563 17.2438 0.615426L0.603223 17.3947C0.220904 17.7801 0 18.3161 0 18.8594V64.7598C0 68.2006 2.79937 71 6.24023 71C10.6286 71 12.0858 71 12.0796 71C18.4589 71 31.0117 71 54.2207 71C63.4054 71 71 63.4377 71 54.2207C71 45.0451 63.4729 37.5801 54.2207 37.5801ZM16.6406 7.13148V16.7793H7.07254L16.6406 7.13148ZM6.24023 66.8398C5.09328 66.8398 4.16016 65.9067 4.16016 64.7598V20.9395H18.7207C19.8695 20.9395 20.8008 20.0081 20.8008 18.8594V4.16016H47.8418C49.0237 4.16016 50.0605 5.13211 50.0605 6.24023V38.098C45.6455 39.219 41.9265 42.0814 39.6939 45.9004H10.4004C9.25163 45.9004 8.32031 46.8317 8.32031 47.9805C8.32031 49.1292 9.25163 50.0605 10.4004 50.0605H37.9722C37.6258 51.3907 37.4414 52.7848 37.4414 54.2207H10.4004C9.25163 54.2207 8.32031 55.152 8.32031 56.3008C8.32031 57.4495 9.25163 58.3809 10.4004 58.3809H37.9691C38.8098 61.6337 40.6277 64.5655 43.2222 66.8398H6.24023ZM54.2207 66.8398C47.3804 66.8398 41.6016 61.061 41.6016 54.2207C41.6016 47.339 47.2624 41.7402 54.2207 41.7402C61.179 41.7402 66.8398 47.339 66.8398 54.2207C66.8398 61.061 61.061 66.8398 54.2207 66.8398Z" fill="#C4C4C4"/>
</svg>
