<svg width="56" height="56" viewBox="0 0 56 56" fill="none" xmlns="http://www.w3.org/2000/svg">
<path d="M34.4531 9.95312H21.3281C20.4221 9.95312 19.6875 10.6877 19.6875 11.5938C19.6875 12.4998 20.4221 13.2344 21.3281 13.2344H34.4531C35.3592 13.2344 36.0938 12.4998 36.0938 11.5938C36.0938 10.6877 35.3592 9.95312 34.4531 9.95312Z" fill="#FCCF00"/>
<path d="M34.4531 16.5156H21.3281C20.4221 16.5156 19.6875 17.2502 19.6875 18.1562C19.6875 19.0623 20.4221 19.7969 21.3281 19.7969H34.4531C35.3592 19.7969 36.0938 19.0623 36.0938 18.1562C36.0938 17.2502 35.3592 16.5156 34.4531 16.5156Z" fill="#FCCF00"/>
<path d="M34.4531 23.0781H8.20312C7.29706 23.0781 6.5625 23.8127 6.5625 24.7188C6.5625 25.6248 7.29706 26.3594 8.20312 26.3594H34.4531C35.3592 26.3594 36.0938 25.6248 36.0938 24.7188C36.0938 23.8127 35.3592 23.0781 34.4531 23.0781Z" fill="#FCCF00"/>
<path d="M28.5055 29.6406H8.20312C7.29706 29.6406 6.5625 30.3752 6.5625 31.2812C6.5625 32.1873 7.29706 32.9219 8.20312 32.9219H28.5055C29.4116 32.9219 30.1462 32.1873 30.1462 31.2812C30.1462 30.3752 29.4116 29.6406 28.5055 29.6406Z" fill="#FCCF00"/>
<path d="M42.7656 29.6406V4.92188C42.7656 2.2015 40.4582 0 37.7344 0H14.7654C14.3495 0 13.9216 0.1645 13.6008 0.485406L0.475781 13.7198C0.174234 14.0237 0 14.4465 0 14.875V51.0781C0 53.792 2.20795 56 4.92188 56C8.38316 56 9.53247 56 9.52755 56C14.5591 56 24.46 56 42.7656 56C50.0099 56 56 50.0353 56 42.7656C56 35.5285 50.0631 29.6406 42.7656 29.6406ZM13.125 5.62483V13.2344H5.57834L13.125 5.62483ZM4.92188 52.7188C4.01723 52.7188 3.28125 51.9828 3.28125 51.0781V16.5156H14.7656C15.6717 16.5156 16.4062 15.7811 16.4062 14.875V3.28125H37.7344C38.6666 3.28125 39.4844 4.04786 39.4844 4.92188V30.0491C36.0021 30.9333 33.0688 33.1909 31.3078 36.2031H8.20312C7.29706 36.2031 6.5625 36.9377 6.5625 37.8438C6.5625 38.7498 7.29706 39.4844 8.20312 39.4844H29.9499C29.6767 40.5335 29.5312 41.633 29.5312 42.7656H8.20312C7.29706 42.7656 6.5625 43.5002 6.5625 44.4062C6.5625 45.3123 7.29706 46.0469 8.20312 46.0469H29.9474C30.6106 48.6125 32.0444 50.9249 34.0908 52.7188H4.92188ZM42.7656 52.7188C37.3705 52.7188 32.8125 48.1608 32.8125 42.7656C32.8125 37.3378 37.2774 32.9219 42.7656 32.9219C48.2538 32.9219 52.7188 37.3378 52.7188 42.7656C52.7188 48.1608 48.1608 52.7188 42.7656 52.7188Z" fill="#FCCF00"/>
<path d="M48.9665 39.9746C48.3313 39.3286 47.2924 39.3199 46.6463 39.9553L41.1157 45.3954L38.8752 43.2273C38.2241 42.5971 37.1855 42.6142 36.5554 43.2653C35.9253 43.9164 35.9424 44.9551 36.5935 45.5852L39.9841 48.8664C40.6236 49.4854 41.6405 49.4816 42.2755 48.8571L48.9474 42.2946C49.5933 41.6593 49.6019 40.6205 48.9665 39.9746Z" fill="#FCCF00"/>
</svg>
