<svg width="86" height="62" viewBox="0 0 86 62" fill="none" xmlns="http://www.w3.org/2000/svg">
<path d="M83.2354 14.3509L75.6395 21.9469L63.3178 9.62518L70.9137 2.02922L68.8845 0L60.2739 8.61056L53.519 15.3656H31.7457L24.9907 8.61056L16.3802 0L14.3509 2.02922L21.9469 9.62518L9.62518 21.9469L2.02922 14.3509L0 16.3802L8.61056 24.9907L15.786 32.1662L23.392 39.732L22.244 40.8801C20.5026 42.6022 20.4872 45.41 22.2093 47.1513C22.2208 47.1629 22.2323 47.1744 22.244 47.1859C23.0435 47.9781 24.1126 48.4393 25.2376 48.4775C25.279 49.6003 25.7483 50.6646 26.5492 51.4524C27.3491 52.2441 28.4181 52.7053 29.5428 52.744C29.5866 53.8686 30.0597 54.9338 30.8646 55.7204C31.6644 56.512 32.7334 56.9732 33.8582 57.012C33.8996 58.1348 34.3689 59.1991 35.1698 59.9869C36.9228 61.7187 39.7428 61.7187 41.4957 59.9869L42.6323 58.8489L43.7689 59.9783C45.5203 61.7264 48.3569 61.7239 50.105 59.9726C50.8988 59.1774 51.3649 58.1131 51.4108 56.9905C52.5373 56.9497 53.6069 56.4855 54.4058 55.6903C55.2064 54.8975 55.675 53.8297 55.7161 52.7038C56.8428 52.6626 57.9123 52.1978 58.7111 51.4022C59.5117 50.6095 59.9803 49.5416 60.0214 48.4158C62.4849 48.3307 64.4129 46.2647 64.3277 43.8012C64.2886 42.6682 63.8197 41.5924 63.0164 40.7925L61.9286 39.709L69.4758 32.1619L76.6512 24.9864L85.2618 16.3759L83.2354 14.3509ZM11.6544 23.9761L23.9761 11.6544L29.1224 16.8006L16.8006 29.1224L11.6544 23.9761ZM26.5593 45.1452C25.925 45.7788 24.8974 45.7788 24.2631 45.1452C23.6473 44.5381 23.6401 43.5468 24.2472 42.931C24.2524 42.9256 24.2577 42.9202 24.2631 42.915L25.4299 41.7584L27.7074 44.0086L26.5593 45.1452ZM30.8459 49.4175C30.2125 50.0363 29.2004 50.0351 28.5684 49.4146C27.9522 48.8058 27.9461 47.8127 28.5551 47.1963C28.5596 47.1918 28.5639 47.1873 28.5684 47.183L29.7294 46.0349L31.994 48.2852L30.8459 49.4175ZM35.1698 53.6826C34.535 54.3145 33.5085 54.3145 32.8737 53.6826C32.2579 53.0755 32.2507 52.0842 32.8577 51.4684C32.8629 51.463 32.8683 51.4576 32.8737 51.4524L34.0304 50.3043L36.2935 52.5546L35.1698 53.6826ZM39.4751 57.9505C38.8415 58.575 37.8241 58.575 37.1905 57.9505C36.5746 57.3435 36.5674 56.3522 37.1745 55.7364C37.1797 55.731 37.1851 55.7256 37.1905 55.7204L38.3385 54.5795L40.6017 56.8297L39.4751 57.9505ZM61.0037 45.077C61.001 45.0797 60.9985 45.0822 60.9958 45.0849H61.0015C60.3708 45.711 59.3533 45.711 58.7226 45.0849L56.57 42.9409C56.0085 42.3814 55.0995 42.383 54.54 42.9445C53.9805 43.5059 53.9821 44.4149 54.5436 44.9744L56.6963 47.1184C57.3189 47.7366 57.3223 48.7426 56.7041 49.3651C56.7015 49.3678 56.6989 49.3703 56.6963 49.373C56.0655 49.999 55.048 49.999 54.4173 49.373L52.2647 47.2289C51.7032 46.6694 50.7942 46.6711 50.2347 47.2325C49.6752 47.794 49.6768 48.703 50.2383 49.2625L52.391 51.4065C53.0136 52.0247 53.017 53.0307 52.3989 53.6531C52.3962 53.6558 52.3937 53.6583 52.391 53.661C51.7603 54.2871 50.7428 54.2871 50.112 53.661L47.9594 51.517C47.3979 50.9575 46.489 50.9591 45.9295 51.5206C45.37 52.0821 45.3716 52.991 45.933 53.5505L48.0857 55.6946C48.7083 56.3127 48.7118 57.3187 48.0936 57.9412C48.0909 57.9439 48.0884 57.9464 48.0857 57.9491C47.4543 58.5746 46.4368 58.5746 45.8053 57.9491L18.8327 31.1516L31.7486 18.2357H36.3567L25.8231 29.0162C25.2736 29.5784 25.2788 30.478 25.8346 31.0339C27.6132 32.8303 30.0014 33.8935 32.5264 34.0132C35.0672 34.1477 37.5458 33.1966 39.3445 31.397C39.408 31.3342 39.4651 31.2655 39.5153 31.1918L40.0348 30.4297C43.1337 32.873 47.1733 33.7792 51.019 32.8938L60.9958 42.8304C61.6183 43.4485 61.6219 44.4545 61.0037 45.077ZM59.9066 37.6884L53.8863 31.6926L54.9741 30.8646C55.0253 30.8247 55.0732 30.7811 55.1176 30.734L56.5527 29.2989L54.5235 27.2697L53.1587 28.6344L51.9174 29.5701C48.0857 31.2092 43.6391 30.2934 40.7667 27.274C40.2063 26.7134 39.2977 26.7134 38.7371 27.2736C38.674 27.3367 38.6169 27.4055 38.5667 27.4792L37.2105 29.4639C35.9841 30.6249 34.3366 31.2345 32.6498 31.1516C31.3306 31.0836 30.055 30.6558 28.9616 29.9145L40.3663 18.2357H53.519L66.4348 31.1516L59.9066 37.6884ZM68.464 29.1224L56.1423 16.8006L61.2886 11.6544L73.6103 23.9761L68.464 29.1224Z" fill="#FCCF00"/>
</svg>
