<svg width="107" height="77" viewBox="0 0 107 77" fill="none" xmlns="http://www.w3.org/2000/svg">
<path d="M103.607 17.8633L94.152 27.3183L78.8146 11.9809L88.2697 2.52587L85.7438 0L75.0258 10.718L66.6176 19.1262H39.5154L31.1071 10.718L20.3892 0L17.8633 2.52587L27.3183 11.9809L11.9809 27.3183L2.52587 17.8633L0 20.3892L10.718 31.1071L19.6496 40.0388L29.1172 49.4563L27.6881 50.8854C25.5206 53.029 25.5014 56.5239 27.645 58.6914C27.6593 58.7059 27.6736 58.7202 27.6881 58.7345C28.6833 59.7206 30.0141 60.2946 31.4144 60.3422C31.466 61.7398 32.0501 63.0646 33.0471 64.0452C34.0427 65.0306 35.3733 65.6047 36.7734 65.653C36.8278 67.0528 37.4167 68.3787 38.4186 69.3578C39.4142 70.3432 40.7448 70.9173 42.1449 70.9655C42.1964 72.3631 42.7806 73.6879 43.7776 74.6685C45.9596 76.8242 49.4697 76.8242 51.6517 74.6685L53.0665 73.252L54.4812 74.6578C56.6612 76.8338 60.1921 76.8307 62.3681 74.6507C63.3562 73.6608 63.9363 72.3361 63.9934 70.9387C65.3957 70.888 66.727 70.3101 67.7215 69.3203C68.7181 68.3336 69.3013 67.0043 69.3524 65.6029C70.7549 65.5516 72.0862 64.973 73.0805 63.9827C74.077 62.996 74.6603 61.6668 74.7114 60.2654C77.7779 60.1595 80.1778 57.5879 80.0717 54.5214C80.0231 53.1111 79.4394 51.7721 78.4395 50.7764L77.0854 49.4277L86.4798 40.0334L95.4114 31.1018L106.129 20.3838L103.607 17.8633ZM14.5068 29.8442L29.8442 14.5068L36.25 20.9126L20.9126 36.25L14.5068 29.8442ZM33.0596 56.1943C32.27 56.983 30.991 56.983 30.2015 56.1943C29.4349 55.4387 29.426 54.2048 30.1816 53.4383C30.1881 53.4316 30.1948 53.4249 30.2015 53.4184L31.6537 51.9786L34.4887 54.7796L33.0596 56.1943ZM38.3954 61.5122C37.6069 62.2826 36.3471 62.281 35.5604 61.5087C34.7934 60.7508 34.7859 59.5147 35.5439 58.7474C35.5495 58.7419 35.5549 58.7363 35.5604 58.7309L37.0056 57.3019L39.8244 60.1028L38.3954 61.5122ZM43.7776 66.8212C42.9873 67.6079 41.7097 67.6079 40.9194 66.8212C40.1529 66.0656 40.1439 64.8317 40.8996 64.0651C40.906 64.0584 40.9127 64.0517 40.9194 64.0452L42.3592 62.6162L45.1763 65.4172L43.7776 66.8212ZM49.1366 72.1338C48.3479 72.911 47.0814 72.911 46.2927 72.1338C45.5262 71.3781 45.5172 70.1442 46.2728 69.3777C46.2793 69.371 46.286 69.3643 46.2927 69.3578L47.7218 67.9377L50.5388 70.7386L49.1366 72.1338ZM75.9342 56.1095C75.9308 56.1128 75.9277 56.116 75.9243 56.1193H75.9315C75.1464 56.8986 73.8799 56.8986 73.0948 56.1193L70.4153 53.4505C69.7164 52.7541 68.585 52.7561 67.8885 53.455C67.1921 54.1539 67.1941 55.2853 67.893 55.9818L70.5725 58.6505C71.3475 59.42 71.3518 60.6722 70.5823 61.447C70.579 61.4504 70.5758 61.4535 70.5725 61.4569C69.7874 62.2361 68.5209 62.2361 67.7358 61.4569L65.0563 58.7881C64.3574 58.0916 63.226 58.0937 62.5295 58.7926C61.8331 59.4915 61.8351 60.6229 62.534 61.3193L65.2135 63.9881C65.9886 64.7575 65.9928 66.0098 65.2233 66.7846C65.22 66.7879 65.2169 66.7911 65.2135 66.7944C64.4284 67.5737 63.1619 67.5737 62.3768 66.7944L59.6973 64.1256C58.9984 63.4292 57.867 63.4312 57.1706 64.1301C56.4741 64.829 56.4761 65.9604 57.175 66.6569L59.8545 69.3256C60.6296 70.0951 60.6338 71.3473 59.8643 72.1221C59.861 72.1255 59.8579 72.1286 59.8545 72.132C59.0685 72.9106 57.802 72.9106 57.016 72.132L23.442 38.7758L39.519 22.6989H45.2549L32.1432 36.1178C31.4593 36.8176 31.4657 37.9374 32.1575 38.6294C34.3714 40.8654 37.3441 42.1888 40.4871 42.3378C43.6498 42.5052 46.7351 41.3214 48.974 39.0813C49.053 39.0032 49.124 38.9176 49.1866 38.8259L49.8332 37.8773C53.6906 40.9185 58.7189 42.0466 63.5058 40.9444L75.9243 53.313C76.6992 54.0825 76.7036 55.3347 75.9342 56.1095ZM74.5685 46.9126L67.0749 39.4493L68.4289 38.4186C68.4925 38.369 68.5522 38.3147 68.6075 38.256L70.3939 36.4697L67.868 33.9438L66.1692 35.6426L64.624 36.8073C59.8545 38.8475 54.3196 37.7076 50.7442 33.9492C50.0467 33.2514 48.9157 33.2514 48.2179 33.9487C48.1393 34.0273 48.0683 34.1129 48.0058 34.2046L46.3177 36.6751C44.7911 38.1203 42.7404 38.879 40.6408 38.7758C38.9987 38.6912 37.4109 38.1587 36.0499 37.236L50.2459 22.6989H66.6176L82.6945 38.7758L74.5685 46.9126ZM85.2204 36.25L69.883 20.9126L76.2887 14.5068L91.6262 29.8442L85.2204 36.25Z" fill="#C4C4C4"/>
</svg>
