<svg width="64" height="58" viewBox="0 0 64 58" fill="none" xmlns="http://www.w3.org/2000/svg">
<path d="M56.5 38.25C55.1193 38.25 54 37.1307 54 35.75V15.375C54 9.861 49.514 5.375 44 5.375H20C14.486 5.375 10 9.861 10 15.375V35.75C10 37.1307 8.88075 38.25 7.5 38.25C6.11925 38.25 5 37.1307 5 35.75V15.375C5 7.104 11.729 0.375 20 0.375H44C52.271 0.375 59 7.104 59 15.375V35.75C59 37.1307 57.8807 38.25 56.5 38.25ZM64 50.125C64 45.9895 60.6355 42.625 56.5 42.625H7.5C3.3645 42.625 0 45.9895 0 50.125C0 54.2605 3.3645 57.625 7.5 57.625H56.5C60.6355 57.625 64 54.2605 64 50.125ZM56.5 47.625C57.8785 47.625 59 48.7465 59 50.125C59 51.5035 57.8785 52.625 56.5 52.625H7.5C6.1215 52.625 5 51.5035 5 50.125C5 48.7465 6.1215 47.625 7.5 47.625H56.5ZM40.375 17C40.375 12.6578 36.8423 9.125 32.5 9.125C28.1577 9.125 24.625 12.6578 24.625 17C24.625 21.3423 28.1577 24.875 32.5 24.875C36.8423 24.875 40.375 21.3423 40.375 17ZM35.375 17C35.375 18.5853 34.0854 19.875 32.5 19.875C30.9146 19.875 29.625 18.5853 29.625 17C29.625 15.4148 30.9146 14.125 32.5 14.125C34.0854 14.125 35.375 15.4148 35.375 17ZM40.766 38.1691C42.102 37.8206 42.9026 36.4551 42.5541 35.1191C41.4033 30.7066 37.4021 27.625 32.8242 27.625H31.4258C26.8479 27.625 22.8468 30.7066 21.6959 35.119C21.3474 36.455 22.1479 37.8205 23.484 38.169C24.8205 38.5174 26.1854 37.717 26.534 36.3809C27.1109 34.1695 29.1224 32.625 31.4258 32.625H32.8242C35.1276 32.625 37.1392 34.1695 37.716 36.381C38.0094 37.5055 39.0231 38.2506 40.1334 38.2506C40.3421 38.2506 40.5545 38.2243 40.766 38.1691Z" fill="#4A4A4A"/>
</svg>
