<svg width="62" height="62" viewBox="0 0 62 62" fill="none" xmlns="http://www.w3.org/2000/svg">
<g clip-path="url(#clip0)">
<path d="M62 41.367L61.9353 23.9242C61.9255 21.0869 59.5807 18.7409 56.7084 18.6944C55.2912 18.6717 53.9607 19.2002 52.9642 20.1837C52.0064 21.1291 51.4717 22.3848 51.453 23.7279L51.0097 28.8674C48.0902 22.9544 43.2576 18.1827 37.2331 15.345V10.883L41.5849 1.85118H38.6954C38.5139 1.85118 38.4906 1.85118 38.0748 1.44443C37.5233 0.905197 36.6006 0.00268555 34.9154 0.00268555C33.2303 0.00268555 32.3077 0.905318 31.7564 1.44455C31.3405 1.8513 31.3171 1.8513 31.1357 1.8513C30.9545 1.8513 30.9311 1.8513 30.5154 1.44467C29.9642 0.905439 29.0414 0.00268555 27.3564 0.00268555C25.6714 0.00268555 24.7487 0.905318 24.1973 1.44467C23.7816 1.8513 23.7584 1.8513 23.577 1.8513H20.7486L24.8787 10.8647V15.3397C18.8056 18.1698 13.9312 22.9623 10.9942 28.9095L10.5473 23.728C10.5285 22.3848 9.99387 21.1292 9.03602 20.1838C8.03966 19.2003 6.70932 18.6733 5.29192 18.6945C2.41957 18.741 0.0748359 21.087 0.0649063 23.9238L0 41.367L8.74587 55.3422L5.84059 61.9989H19.6729L23.0079 55.5885L23.0466 55.4857C23.0945 55.3579 23.139 55.2294 23.1819 55.1006C25.6487 56.0794 28.3025 56.5923 30.973 56.5923C33.6626 56.5923 36.3315 56.0733 38.812 55.0818C38.8568 55.217 38.9033 55.3519 38.9536 55.4857L38.9922 55.5885L42.3272 61.9989H56.1595L53.2542 55.3422L62 41.367ZM28.509 12.2837H33.6027V14.7043H28.509V12.2837ZM26.7359 4.03971C27.1516 3.63296 27.1749 3.63296 27.3563 3.63296C27.5376 3.63296 27.5609 3.63296 27.9767 4.03959C28.5279 4.57894 29.4506 5.48157 31.1356 5.48157C32.8208 5.48157 33.7435 4.57906 34.2948 4.03971C34.7107 3.63296 34.7339 3.63296 34.9154 3.63296C35.097 3.63296 35.1202 3.63296 35.5361 4.03971C35.7165 4.21626 35.9368 4.43157 36.2104 4.64155L34.2775 8.65326H27.8587L26.0312 4.66479C26.319 4.44755 26.5488 4.22268 26.7359 4.03971ZM19.6833 54.1127L17.4692 58.3684H11.3862L12.8392 55.0393L3.63427 40.3308L3.69505 23.9366C3.69808 23.0622 4.44063 22.3389 5.35053 22.3241C5.78513 22.3153 6.18886 22.4744 6.48566 22.7675C6.76514 23.0433 6.91845 23.4122 6.91724 23.806L6.917 23.887L8.00623 36.5134C7.599 37.0719 7.30159 37.7079 7.14114 38.3848C6.82085 39.7363 7.05068 41.1201 7.78827 42.2855L12.745 50.6641L15.8696 48.8156L10.8975 40.4111L10.862 40.3537C10.6469 40.0192 10.5801 39.6173 10.6737 39.2222C10.7756 38.7918 11.0493 38.4262 11.4441 38.1927C12.19 37.7517 13.1548 37.9463 13.6078 38.6244L18.9406 47.5876L18.9738 47.6412C20.2148 49.5711 20.4715 51.9239 19.6833 54.1127ZM23.7489 51.4004C23.7139 49.396 23.1376 47.4157 22.0452 45.7053L16.7083 36.7354L16.6751 36.6817C15.7686 35.2721 14.2912 34.4549 12.7249 34.3343C12.7469 34.2654 12.7684 34.1986 12.7906 34.1285C15.0474 27.0279 20.2405 21.2872 27.0631 18.3345H35.0444C41.8485 21.3154 47.0128 27.0732 49.2433 34.1836C49.2592 34.2343 49.2745 34.2826 49.2904 34.3328C47.7184 34.4491 46.2342 35.2674 45.3249 36.6817L39.9549 45.7052C38.8672 47.4081 38.2915 49.3787 38.2519 51.374C35.9825 52.4148 33.4892 52.9617 30.973 52.9617C28.4789 52.9618 26.0028 52.4244 23.7489 51.4004ZM44.5307 58.3685L42.3166 54.1128C41.5286 51.9242 41.7852 49.5711 43.0262 47.6411L48.3923 38.6242C48.8453 37.9462 49.8097 37.7516 50.5558 38.1927C50.9506 38.4261 51.2243 38.7917 51.3263 39.2222C51.4199 39.6173 51.3531 40.0192 51.138 40.3537L46.1303 48.8156L49.2549 50.6641L54.2116 42.2855C54.9492 41.1202 55.179 39.7365 54.8587 38.3848C54.6983 37.7079 54.4008 37.0718 53.9935 36.5134L55.0828 23.8871L55.0825 23.8061C55.0813 23.4123 55.2346 23.0434 55.5141 22.7676C55.8109 22.4747 56.2161 22.3171 56.6492 22.3243C57.559 22.339 58.3017 23.0623 58.3047 23.9372L58.3655 40.3309L49.1607 55.0394L50.6136 58.3685H44.5307Z" fill="#FCCF00"/>
<path d="M29.6877 32.0027C29.6877 31.5713 30.0832 31.2119 31.3236 31.2119C32.4201 31.2119 33.5885 31.5174 34.8289 32.1466L36.1051 29.0728C35.0805 28.4976 33.7862 28.156 32.456 28.0301V26.1067H29.9214V28.066C26.9734 28.4795 25.4994 30.1872 25.4994 32.2184C25.4994 36.9101 32.456 35.6339 32.456 37.2157C32.456 37.6472 32.0246 37.8988 30.8203 37.8988C29.4362 37.8988 27.8544 37.4494 26.6679 36.7484L25.3018 39.8403C26.3804 40.5053 28.124 40.9907 29.9215 41.0986V43.004H32.4562V41.0087C35.2424 40.5234 36.6445 38.8336 36.6445 36.8923C36.6443 32.2544 29.6877 33.5127 29.6877 32.0027Z" fill="#FCCF00"/>
</g>
<defs>
<clipPath id="clip0">
<rect width="62" height="62" fill="white"/>
</clipPath>
</defs>
</svg>
