<svg width="84" height="84" viewBox="0 0 84 84" fill="none" xmlns="http://www.w3.org/2000/svg">
<g clip-path="url(#clip0)">
<path d="M84 56.0446L83.9124 32.4124C83.8991 28.5684 80.7222 25.3899 76.8308 25.3269C74.9106 25.2962 73.1081 26.0122 71.758 27.3447C70.4603 28.6255 69.7359 30.3268 69.7105 32.1465L69.1098 39.1098C65.1545 31.0986 58.6071 24.6337 50.4448 20.7891V14.7437L56.3409 2.5071H52.426C52.1801 2.5071 52.1486 2.5071 51.5852 1.95601C50.838 1.22544 49.5879 0.00268555 47.3048 0.00268555C45.0217 0.00268555 43.7717 1.22561 43.0247 1.95618C42.4613 2.50726 42.4297 2.50726 42.1839 2.50726C41.9383 2.50726 41.9066 2.50726 41.3434 1.95634C40.5966 1.22577 39.3465 0.00268555 37.0635 0.00268555C34.7806 0.00268555 33.5304 1.22561 32.7835 1.95634C32.2202 2.50726 32.1887 2.50726 31.943 2.50726H28.111L33.7066 14.7189V20.7819C25.4786 24.6162 18.8746 31.1093 14.8954 39.1667L14.2898 32.1466C14.2644 30.3268 13.5401 28.6257 12.2423 27.3448C10.8924 26.0123 9.09005 25.2983 7.1697 25.327C3.27813 25.39 0.101391 28.5686 0.0879375 32.4119L0 56.0446L11.8492 74.9788L7.91306 83.9976H26.6536L31.172 75.3125L31.2244 75.1732C31.2893 75.0001 31.3496 74.826 31.4078 74.6515C34.7499 75.9776 38.3453 76.6725 41.9634 76.6725C45.6074 76.6725 49.2233 75.9694 52.584 74.626C52.6447 74.8091 52.7077 74.9919 52.7758 75.1732L52.8281 75.3125L57.3466 83.9976H76.0871L72.1509 74.9788L84 56.0446ZM38.6251 16.6414H45.5262V19.921H38.6251V16.6414ZM36.2229 5.4722C36.7861 4.92112 36.8176 4.92112 37.0634 4.92112C37.309 4.92112 37.3406 4.92112 37.9039 5.47204C38.6507 6.20277 39.9008 7.42569 42.1838 7.42569C44.4668 7.42569 45.717 6.20294 46.464 5.4722C47.0274 4.92112 47.0589 4.92112 47.3048 4.92112C47.5507 4.92112 47.5822 4.92112 48.1456 5.4722C48.3901 5.7114 48.6885 6.00311 49.0593 6.28759L46.4405 11.7228H37.7441L35.268 6.31909C35.658 6.02476 35.9694 5.7201 36.2229 5.4722ZM26.6677 73.313L23.668 79.0788H15.4265L17.3951 74.5684L4.92384 54.6408L5.0062 32.4293C5.0103 31.2446 6.01634 30.2647 7.2491 30.2447C7.83792 30.2327 8.38491 30.4483 8.78702 30.8453C9.16568 31.219 9.37338 31.7188 9.37174 32.2523L9.37141 32.362L10.8472 49.4688C10.2954 50.2255 9.89248 51.0872 9.67509 52.0043C9.24115 53.8354 9.55254 55.7101 10.5518 57.289L17.2674 68.6407L21.5007 66.1363L14.7643 54.7495L14.7162 54.6718C14.4249 54.2186 14.3343 53.6741 14.4611 53.1388C14.5993 52.5557 14.97 52.0604 15.5049 51.7441C16.5155 51.1465 17.8226 51.4102 18.4364 52.3289L25.6615 64.4725L25.7065 64.5452C27.3878 67.1599 27.7356 70.3476 26.6677 73.313ZM32.1759 69.6384C32.1285 66.9226 31.3477 64.2397 29.8677 61.9223L22.637 49.7696L22.5921 49.6969C21.3639 47.787 19.3623 46.6799 17.2402 46.5165C17.27 46.4232 17.2991 46.3326 17.3293 46.2376C20.3867 36.6175 27.4226 28.8398 36.6662 24.8393H47.4795C56.698 28.878 63.6948 36.6789 66.7167 46.3123C66.7383 46.381 66.759 46.4465 66.7805 46.5144C64.6508 46.6721 62.6399 47.7806 61.4079 49.6969L54.1324 61.9222C52.6588 64.2294 51.8789 66.8992 51.8252 69.6026C48.7505 71.0127 45.3725 71.7536 41.9634 71.7536C38.5844 71.7538 35.2296 71.0257 32.1759 69.6384ZM60.3319 79.079L57.3321 73.3132C56.2646 70.3479 56.6122 67.1599 58.2935 64.545L65.5638 52.3286C66.1776 51.41 67.4842 51.1464 68.4949 51.7441C69.0298 52.0602 69.4007 52.5555 69.5389 53.1388C69.6657 53.6741 69.5751 54.2186 69.2838 54.6718L62.4991 66.1363L66.7324 68.6407L73.448 57.289C74.4473 55.7103 74.7587 53.8355 74.3247 52.0043C74.1074 51.0872 73.7043 50.2253 73.1525 49.4688L74.6283 32.3622L74.6279 32.2524C74.6263 31.7189 74.834 31.2192 75.2126 30.8454C75.6148 30.4486 76.1637 30.2351 76.7506 30.2448C77.9832 30.2648 78.9894 31.2448 78.9935 32.4301L79.0758 54.6409L66.6048 74.5686L68.5732 79.079H60.3319Z" fill="#C4C4C4"/>
<path d="M40.222 43.3586C40.222 42.774 40.7578 42.2871 42.4383 42.2871C43.9239 42.2871 45.5069 42.701 47.1874 43.5535L48.9164 39.3889C47.5283 38.6096 45.7748 38.1468 43.9726 37.9763V35.3704H40.5386V38.0249C36.5445 38.5852 34.5475 40.8988 34.5475 43.6508C34.5475 50.0072 43.9726 48.2781 43.9726 50.4213C43.9726 51.0058 43.388 51.3468 41.7564 51.3468C39.8812 51.3468 37.7381 50.7379 36.1306 49.7882L34.2798 53.9772C35.7411 54.8782 38.1034 55.5358 40.5388 55.682V58.2635H43.9728V55.5602C47.7477 54.9027 49.6474 52.6133 49.6474 49.9831C49.647 43.6995 40.222 45.4043 40.222 43.3586Z" fill="#C4C4C4"/>
</g>
<defs>
<clipPath id="clip0">
<rect width="84" height="84" fill="white"/>
</clipPath>
</defs>
</svg>
